<svg width="26" height="32" viewBox="0 0 26 32" fill="none" xmlns="http://www.w3.org/2000/svg">
<path d="M13.1919 9.55824C11.9955 9.55824 10.1435 8.19792 8.19317 8.24709C5.62003 8.27987 3.25996 9.73853 1.93242 12.0494C-0.739058 16.6876 1.24406 23.5384 3.84998 27.308C5.12835 29.1436 6.63618 31.2087 8.63568 31.1431C10.5532 31.0611 11.2744 29.8975 13.6017 29.8975C15.9126 29.8975 16.5682 31.1431 18.6004 31.0939C20.6655 31.0612 21.9767 29.2255 23.2386 27.3735C24.6973 25.2429 25.3037 23.1778 25.3365 23.0631C25.2873 23.0467 21.3211 21.5225 21.2719 16.9335C21.2391 13.0984 24.4023 11.2627 24.5498 11.1808C22.747 8.5421 19.9772 8.24709 19.0102 8.18154C16.4862 7.98486 14.372 9.55824 13.1919 9.55824ZM17.4532 5.69034C18.5185 4.41197 19.2232 2.62552 19.0266 0.855469C17.5024 0.921026 15.6667 1.87161 14.5687 3.14999C13.5853 4.28085 12.733 6.10008 12.9625 7.83736C14.6506 7.96847 16.3879 6.96872 17.4532 5.69034Z" fill="#8F8F8F"/>
</svg>
