<svg width="30" height="32" viewBox="0 0 30 32" fill="none" xmlns="http://www.w3.org/2000/svg">
<path d="M29.8232 16.3408C29.8232 15.3438 29.7349 14.3972 29.5835 13.4759H15.3223V19.1678H23.4878C23.1218 21.0356 22.049 22.6132 20.4588 23.6859V27.4721H25.3304C28.1826 24.8344 29.8232 20.9473 29.8232 16.3408Z" fill="#4285F4"/>
<path d="M15.3223 31.1446C19.4113 31.1446 22.8315 29.7816 25.3304 27.4721L20.4588 23.6859C19.0958 24.5946 17.3668 25.1499 15.3223 25.1499C11.3721 25.1499 8.02767 22.487 6.82873 18.8901H1.80578V22.7899C4.29201 27.7371 9.40331 31.1446 15.3223 31.1446Z" fill="#34A853"/>
<path d="M6.82873 18.8901C6.51322 17.9815 6.34915 17.0097 6.34915 16C6.34915 14.9904 6.52584 14.0186 6.82873 13.11V9.21023H1.80578C0.770897 11.2547 0.177734 13.5517 0.177734 16C0.177734 18.4484 0.770897 20.7453 1.80578 22.7899L6.82873 18.8901Z" fill="#FBBC05"/>
<path d="M15.3223 6.8502C17.5561 6.8502 19.5502 7.62005 21.1277 9.12188L25.4439 4.80568C22.8315 2.35731 19.4113 0.855469 15.3223 0.855469C9.40331 0.855469 4.29201 4.263 1.80578 9.21023L6.82873 13.11C8.02767 9.51312 11.3721 6.8502 15.3223 6.8502Z" fill="#EA4335"/>
</svg>
